@startuml
class Dream{
  String title
  String description
  Array postList
  Array targetList
  Array tierList
}
class Target{
  String title
  String description
}
class Post{
  String title
  String content
  Boolean isMemberOnly
  Array pics
}
class Tier{
  String title
  String description
  String reward
  Number price
}

Dream "1" -- "many" Target
Dream "1" -- "many" Tier
Dream "1" -- "many" Post



@enduml